<svg width="129" height="30" viewBox="0 0 129 30" fill="none" xmlns="http://www.w3.org/2000/svg">
<path d="M12.5768 0H0.94326L9.27539 14.6939L0 30H10.6903L15.721 20.2041L20.5945 30H32.5425L23.2671 14.0816L31.1276 0H20.5945L16.6643 8.11224L12.5768 0Z" fill="white"/>
<path d="M39.4786 21.9306C38.0197 21.9306 36.7201 21.6449 35.5798 21.0735C34.4395 20.4857 33.5423 19.6776 32.8883 18.649C32.2511 17.6204 31.9325 16.4531 31.9325 15.1469C31.9325 13.8245 32.2511 12.6571 32.8883 11.6449C33.5423 10.6163 34.4395 9.81633 35.5798 9.2449C36.7201 8.65714 38.0197 8.36327 39.4786 8.36327C40.9039 8.36327 42.1448 8.65714 43.2013 9.2449C44.2577 9.81633 45.0375 10.6408 45.5406 11.7184L42.497 13.3102C42.1448 12.6898 41.7005 12.2327 41.1639 11.9388C40.644 11.6449 40.0739 11.498 39.4534 11.498C38.7826 11.498 38.179 11.6449 37.6424 11.9388C37.1057 12.2327 36.6781 12.649 36.3595 13.1878C36.0577 13.7265 35.9068 14.3796 35.9068 15.1469C35.9068 15.9143 36.0577 16.5673 36.3595 17.1061C36.6781 17.6449 37.1057 18.0612 37.6424 18.3551C38.179 18.649 38.7826 18.7959 39.4534 18.7959C40.0739 18.7959 40.644 18.6571 41.1639 18.3796C41.7005 18.0857 42.1448 17.6204 42.497 16.9837L45.5406 18.6C45.0375 19.6612 44.2577 20.4857 43.2013 21.0735C42.1448 21.6449 40.9039 21.9306 39.4786 21.9306Z" fill="white"/>
<path d="M55.9514 8.36327C57.0246 8.36327 57.9805 8.57551 58.8189 9C59.6741 9.40816 60.3449 10.0449 60.8312 10.9102C61.3175 11.7592 61.5607 12.8531 61.5607 14.1918V21.7347H57.6367V14.7796C57.6367 13.7184 57.3936 12.9347 56.9073 12.4286C56.4377 11.9224 55.767 11.6694 54.895 11.6694C54.2745 11.6694 53.7127 11.8 53.2097 12.0612C52.7234 12.3061 52.3377 12.6898 52.0526 13.2122C51.7843 13.7347 51.6502 14.4041 51.6502 15.2204V21.7347H47.7262V3.56326H51.6502V12.2082L50.7698 11.1061C51.2561 10.2245 51.952 9.54694 52.8575 9.07347C53.7631 8.6 54.7943 8.36327 55.9514 8.36327Z" fill="white"/>
<path d="M73.4182 21.7347V19.1633L73.1667 18.6V13.9959C73.1667 13.1796 72.9068 12.5429 72.3869 12.0857C71.8839 11.6286 71.1041 11.4 70.0476 11.4C69.3266 11.4 68.6139 11.5143 67.9096 11.7429C67.2221 11.9551 66.6351 12.249 66.1488 12.6245L64.7402 9.9551C65.4781 9.44898 66.3668 9.05714 67.4065 8.77959C68.4462 8.50204 69.5026 8.36327 70.5759 8.36327C72.6385 8.36327 74.2399 8.83673 75.3802 9.78367C76.5205 10.7306 77.0906 12.2082 77.0906 14.2163V21.7347H73.4182ZM69.293 21.9306C68.2366 21.9306 67.3311 21.7592 66.5764 21.4163C65.8218 21.0571 65.2433 20.5755 64.8409 19.9714C64.4384 19.3673 64.2372 18.6898 64.2372 17.9388C64.2372 17.1551 64.43 16.4694 64.8157 15.8816C65.2182 15.2939 65.847 14.8367 66.7022 14.5102C67.5574 14.1673 68.6726 13.9959 70.0476 13.9959H73.6446V16.2245H70.4753C69.553 16.2245 68.9157 16.3714 68.5636 16.6653C68.2282 16.9592 68.0605 17.3265 68.0605 17.7673C68.0605 18.2571 68.2534 18.649 68.639 18.9429C69.0415 19.2204 69.5865 19.3592 70.274 19.3592C70.928 19.3592 71.5149 19.2122 72.0348 18.9184C72.5546 18.6082 72.9319 18.1592 73.1667 17.5714L73.7704 19.3347C73.4853 20.1837 72.9655 20.8286 72.2109 21.2694C71.4562 21.7102 70.4836 21.9306 69.293 21.9306Z" fill="white"/>
<path d="M88.8673 8.36327C89.9405 8.36327 90.8963 8.57551 91.7348 9C92.59 9.40816 93.2607 10.0449 93.747 10.9102C94.2333 11.7592 94.4765 12.8531 94.4765 14.1918V21.7347H90.5525V14.7796C90.5525 13.7184 90.3094 12.9347 89.8231 12.4286C89.3535 11.9224 88.6828 11.6694 87.8108 11.6694C87.1903 11.6694 86.6286 11.8 86.1255 12.0612C85.6392 12.3061 85.2535 12.6898 84.9684 13.2122C84.7001 13.7347 84.566 14.4041 84.566 15.2204V21.7347H80.642V8.55918H84.3899V12.2082L83.6856 11.1061C84.1719 10.2245 84.8678 9.54694 85.7734 9.07347C86.6789 8.6 87.7102 8.36327 88.8673 8.36327Z" fill="white"/>
<path d="M104.495 26.6816C103.221 26.6816 101.989 26.5265 100.798 26.2163C99.6241 25.9224 98.6431 25.4735 97.8549 24.8694L99.4145 22.1265C99.9846 22.5837 100.706 22.9429 101.578 23.2041C102.466 23.4816 103.338 23.6204 104.194 23.6204C105.585 23.6204 106.592 23.3184 107.212 22.7143C107.849 22.1102 108.168 21.2122 108.168 20.0204V18.0367L108.419 14.7306L108.369 11.4V8.55918H112.092V19.5306C112.092 21.9796 111.438 23.7837 110.13 24.9429C108.822 26.102 106.944 26.6816 104.495 26.6816ZM103.892 21.098C102.634 21.098 101.494 20.8367 100.471 20.3143C99.4648 19.7755 98.6515 19.0327 98.031 18.0857C97.4273 17.1224 97.1255 16.0041 97.1255 14.7306C97.1255 13.4408 97.4273 12.3224 98.031 11.3755C98.6515 10.4122 99.4648 9.66939 100.471 9.14694C101.494 8.62449 102.634 8.36327 103.892 8.36327C105.032 8.36327 106.038 8.59184 106.91 9.04898C107.782 9.4898 108.461 10.1837 108.948 11.1306C109.434 12.0612 109.677 13.2612 109.677 14.7306C109.677 16.1837 109.434 17.3837 108.948 18.3306C108.461 19.2612 107.782 19.9551 106.91 20.4122C106.038 20.8694 105.032 21.098 103.892 21.098ZM104.672 17.9633C105.359 17.9633 105.971 17.8327 106.508 17.5714C107.044 17.2939 107.464 16.9102 107.765 16.4204C108.067 15.9306 108.218 15.3673 108.218 14.7306C108.218 14.0776 108.067 13.5143 107.765 13.0408C107.464 12.551 107.044 12.1755 106.508 11.9143C105.971 11.6367 105.359 11.498 104.672 11.498C103.984 11.498 103.372 11.6367 102.835 11.9143C102.299 12.1755 101.871 12.551 101.553 13.0408C101.251 13.5143 101.1 14.0776 101.1 14.7306C101.1 15.3673 101.251 15.9306 101.553 16.4204C101.871 16.9102 102.299 17.2939 102.835 17.5714C103.372 17.8327 103.984 17.9633 104.672 17.9633Z" fill="white"/>
<path d="M122.46 21.9306C120.917 21.9306 119.559 21.6367 118.385 21.049C117.228 20.4612 116.331 19.6612 115.694 18.649C115.057 17.6204 114.738 16.4531 114.738 15.1469C114.738 13.8245 115.048 12.6571 115.669 11.6449C116.306 10.6163 117.169 9.81633 118.259 9.2449C119.349 8.65714 120.582 8.36327 121.957 8.36327C123.282 8.36327 124.472 8.64082 125.529 9.19592C126.602 9.73469 127.449 10.5184 128.069 11.5469C128.69 12.5592 129 13.7755 129 15.1959C129 15.3429 128.992 15.5143 128.975 15.7102C128.958 15.8898 128.941 16.0612 128.925 16.2245H117.932V13.9959H126.862L125.353 14.6571C125.353 13.9714 125.21 13.3755 124.925 12.8694C124.64 12.3633 124.246 11.9714 123.743 11.6939C123.24 11.4 122.653 11.2531 121.982 11.2531C121.311 11.2531 120.716 11.4 120.196 11.6939C119.693 11.9714 119.299 12.3714 119.014 12.8939C118.729 13.4 118.586 14.0041 118.586 14.7061V15.2939C118.586 16.0122 118.746 16.649 119.064 17.2041C119.4 17.7429 119.861 18.1592 120.448 18.4531C121.051 18.7306 121.756 18.8694 122.561 18.8694C123.282 18.8694 123.911 18.7633 124.447 18.551C125.001 18.3388 125.504 18.0204 125.956 17.5959L128.044 19.8C127.424 20.4857 126.644 21.0163 125.705 21.3918C124.766 21.751 123.684 21.9306 122.46 21.9306Z" fill="white"/>
</svg>
